<?xml version="1.0" encoding="utf-8"?>
<!-- Generator: Adobe Illustrator 19.0.1, SVG Export Plug-In . SVG Version: 6.00 Build 0)  -->
<svg version="1.1" id="Layer_1" xmlns="http://www.w3.org/2000/svg" xmlns:xlink="http://www.w3.org/1999/xlink" x="0px" y="0px"
	 viewBox="-255 381 100 31" style="enable-background:new -255 381 100 31;" xml:space="preserve">
<style type="text/css">
	.st0{fill:#107EB1;}
	.st1{opacity:0.65;}
</style>
<g>
	<g>
		<path class="st0" d="M-221.4,387.1c-4.8,0-8.7,4.2-8.7,9.4l0.1,7.7c0,1.3,1,2.3,2.2,2.3c1.2,0,2.2-1.1,2.2-2.3l-0.1-7.7
			c0-2.6,2-4.7,4.4-4.7c2.5,0,4.5,2.1,4.5,4.7l0.1,7.7c0,1.3,1,2.3,2.2,2.3c1.2,0,2.2-1,2.1-2.3l-0.1-7.7
			C-212.6,391.2-216.6,387-221.4,387.1z"/>
		<path class="st0" d="M-241.4,401.9c-2.5,0-4.5-2.1-4.5-4.7l0-5.4l2.6,0c1.2,0,2.2-1,2.2-2.3c0-1.3-1-2.3-2.2-2.3l-2.6,0l0-4
			c0-1.3-1-2.3-2.2-2.3c-1.2,0-2.2,1.1-2.2,2.3l0,4l-2.5,0c-1.2,0-2.2,1-2.2,2.3s1,2.3,2.2,2.3l2.5,0l0,5.4c0,5.1,4,9.2,8.8,9.2
			c1.2,0,2.2-1,2.2-2.3C-239.2,402.9-240.2,401.9-241.4,401.9z"/>
		<ellipse class="st0" cx="-235" cy="389.5" rx="2.3" ry="2.4"/>
		<path class="st0" d="M-192.7,397.3c0-0.2,0-0.3,0-0.5l-0.1-7.7c0-1.3-1-2.3-2.2-2.3c-1.2,0-2.2,1.1-2.2,2.3l0.1,7.1
			c0,0.1,0,0.2,0,0.3v0.7c-0.2,2.4-2.1,4.3-4.4,4.4c-2.5,0-4.5-2.1-4.5-4.7l-0.1-7.7c0-1.3-1-2.3-2.2-2.3s-2.2,1.1-2.2,2.3l0.1,7.7
			c0,5.1,4,9.2,8.8,9.2c1.6,0,3.1-0.5,4.4-1.3l0,4.8c0,1.3,1,2.3,2.2,2.3c1.2,0,2.2-1.1,2.2-2.3L-192.7,397.3z"/>
		<path class="st0" d="M-234.9,394.2c-1.2,0-2.2,1.1-2.2,2.3l0.1,7.7c0,1.3,1,2.3,2.2,2.3c1.2,0,2.2-1,2.2-2.3l-0.1-7.7
			C-232.7,395.2-233.7,394.1-234.9,394.2z"/>
	</g>
	<g class="st1">
		<path class="st0" d="M-155.6,402.1l-3-3.1l2.9-3.2c0.8-0.9,0.8-2.4,0-3.3c-0.9-0.9-2.2-0.9-3.1,0l-3,3.2l-3-3.1
			c-0.9-0.9-2.2-0.9-3.1,0c-0.8,0.9-0.8,2.4,0,3.3l3,3.1l-2.9,3.2c-0.8,0.9-0.8,2.4,0,3.3c0.9,0.9,2.2,0.9,3.1,0l3-3.2l3,3.1
			c0.9,0.9,2.2,0.9,3.1,0C-154.8,404.4-154.8,402.9-155.6,402.1z"/>
		<path class="st0" d="M-170.8,396.5c0-5.1-4-9.2-8.8-9.2l-7.3,0.1c-1.2,0-2.2,1-2.2,2.3l0,0c0,0,0,0,0,0l0.1,19.9
			c0,1.3,1,2.3,2.2,2.3c1.2,0,2.2-1,2.2-2.3l0-3.7l4.5,0l5.2,5.4c0.9,0.9,2.2,0.9,3.1,0c0.8-0.9,0.8-2.4,0-3.3l-3.2-3.4
			C-172.5,403-170.8,400-170.8,396.5z M-179.5,401.3l-5.1,0l-0.1-9.4l5.1,0c2.5,0,4.5,2.1,4.5,4.7
			C-175.1,399.2-177.1,401.3-179.5,401.3z"/>
	</g>
</g>
</svg>
